<svg width="13" height="10" viewBox="0 0 13 10" fill="none" xmlns="http://www.w3.org/2000/svg">
<path d="M6.5 0.787842C3.39438 0.787842 0.25 1.75409 0.25 3.60034C0.25 5.44659 3.39438 6.41284 6.5 6.41284C9.60625 6.41284 12.75 5.44659 12.75 3.60034C12.75 1.75409 9.60625 0.787842 6.5 0.787842ZM3.375 6.99909V8.87409C4.14812 9.06097 5.00313 9.17534 5.875 9.21222V7.33722C5.0328 7.30441 4.19566 7.19118 3.375 6.99909ZM7.125 7.33659V9.21159C7.96726 9.17944 8.80446 9.06621 9.625 8.87347V6.99847C8.80446 7.19121 7.96726 7.30444 7.125 7.33659ZM10.875 6.59847V8.47347C12.0006 8.00159 12.75 7.31284 12.75 6.41284V4.53784C12.75 5.43784 12.0006 6.12659 10.875 6.59847ZM2.125 8.47347V6.59847C1 6.12659 0.25 5.43722 0.25 4.53784V6.41284C0.25 7.31222 1 8.00159 2.125 8.47347Z" fill="#AD5E00"/>
</svg>
