<svg width="26" height="17" viewBox="0 0 26 17" fill="none" xmlns="http://www.w3.org/2000/svg">
<path d="M19.3636 10.8181C17.6306 10.8181 16.2207 12.2047 16.2207 13.909C16.2207 15.6134 17.6306 16.9999 19.3636 16.9999C21.0969 16.9999 22.5065 15.6134 22.5065 13.909C22.5065 12.2047 21.0966 10.8181 19.3636 10.8181ZM19.3636 15.4545C18.497 15.4545 17.7921 14.7613 17.7921 13.909C17.7921 13.0567 18.497 12.3636 19.3636 12.3636C20.2302 12.3636 20.935 13.0567 20.935 13.909C20.935 14.7614 20.2302 15.4545 19.3636 15.4545Z" fill="white"/>
<path d="M8.62531 10.8181C6.89228 10.8181 5.48242 12.2047 5.48242 13.909C5.48242 15.6134 6.89228 16.9999 8.62531 16.9999C10.3583 16.9999 11.7682 15.6134 11.7682 13.909C11.7682 12.2047 10.3583 10.8181 8.62531 10.8181ZM8.62531 15.4545C7.75868 15.4545 7.05387 14.7613 7.05387 13.909C7.05387 13.0567 7.75868 12.3636 8.62531 12.3636C9.4917 12.3636 10.1968 13.0567 10.1968 13.909C10.1968 14.7614 9.49194 15.4545 8.62531 15.4545Z" fill="white"/>
<path d="M21.4809 1.97094C21.3474 1.71002 21.0758 1.54541 20.7788 1.54541H16.6406V3.09087H20.2942L22.4337 7.27595L23.8381 6.5815L21.4809 1.97094Z" fill="white"/>
<path d="M17.0058 13.1622H11.0605V14.7077H17.0058V13.1622Z" fill="white"/>
<path d="M6.26925 13.1622H3.54546C3.11146 13.1622 2.75977 13.5082 2.75977 13.9349C2.75977 14.3618 3.11151 14.7076 3.54546 14.7076H6.2693C6.7033 14.7076 7.055 14.3617 7.055 13.9349C7.055 13.5081 6.70325 13.1622 6.26925 13.1622Z" fill="white"/>
<path d="M25.302 8.43817L23.7566 6.48059C23.6081 6.29204 23.3789 6.18178 23.1361 6.18178H17.4265V0.772705C17.4265 0.345883 17.0748 0 16.6408 0H3.54546C3.11146 0 2.75977 0.345931 2.75977 0.772705C2.75977 1.19948 3.11151 1.54541 3.54546 1.54541H15.8551V6.95449C15.8551 7.38131 16.2068 7.7272 16.6408 7.7272H22.7513L23.8956 9.17682V13.162H21.7217C21.2877 13.162 20.936 13.508 20.936 13.9347C20.936 14.3616 21.2878 14.7075 21.7217 14.7075H24.6813C25.1153 14.7075 25.467 14.3615 25.467 13.9347V8.91212C25.467 8.74056 25.4089 8.57366 25.302 8.43817Z" fill="white"/>
<path d="M6.21644 9.24695H2.6021C2.16811 9.24695 1.81641 9.59288 1.81641 10.0197C1.81641 10.4465 2.16815 10.7924 2.6021 10.7924H6.21639C6.65039 10.7924 7.00209 10.4464 7.00209 10.0197C7.00214 9.59288 6.65039 9.24695 6.21644 9.24695Z" fill="white"/>
<path d="M8.02373 6.20764H1.3189C0.884951 6.20764 0.533203 6.55357 0.533203 6.98039C0.533203 7.40722 0.884951 7.7531 1.3189 7.7531H8.02373C8.45772 7.7531 8.80942 7.40717 8.80942 6.98039C8.80942 6.55362 8.45772 6.20764 8.02373 6.20764Z" fill="white"/>
<path d="M9.30693 3.16809H2.6021C2.16811 3.16809 1.81641 3.51402 1.81641 3.9408C1.81641 4.36762 2.16815 4.7135 2.6021 4.7135H9.30693C9.74093 4.7135 10.0926 4.36757 10.0926 3.9408C10.0927 3.51402 9.74093 3.16809 9.30693 3.16809Z" fill="white"/>
</svg>
