<svg width="21" height="19" viewBox="0 0 21 19" fill="none" xmlns="http://www.w3.org/2000/svg">
<path d="M18.5349 2.50292C18.0707 2.02645 17.5195 1.64848 16.9128 1.39061C16.3061 1.13273 15.6558 1 14.9991 1C14.3424 1 13.6921 1.13273 13.0854 1.39061C12.4787 1.64848 11.9275 2.02645 11.4633 2.50292L10.4998 3.4913L9.53626 2.50292C8.5985 1.54094 7.32662 1.0005 6.00043 1.0005C4.67423 1.0005 3.40235 1.54094 2.46459 2.50292C1.52683 3.46491 1 4.76964 1 6.1301C1 7.49055 1.52683 8.79528 2.46459 9.75727L3.42808 10.7457L10.4998 18L17.5714 10.7457L18.5349 9.75727C18.9994 9.28102 19.3678 8.71557 19.6192 8.0932C19.8706 7.47084 20 6.80377 20 6.1301C20 5.45642 19.8706 4.78935 19.6192 4.16699C19.3678 3.54463 18.9994 2.97917 18.5349 2.50292V2.50292Z" stroke="#FF2727" stroke-width="1.5" stroke-linecap="round" stroke-linejoin="round"/>
</svg>
