<svg width="25" height="24" viewBox="0 0 25 24" fill="none" xmlns="http://www.w3.org/2000/svg">
<path d="M9.5 23C10.3284 23 11 22.3284 11 21.5C11 20.6716 10.3284 20 9.5 20C8.67157 20 8 20.6716 8 21.5C8 22.3284 8.67157 23 9.5 23Z" stroke="white" stroke-width="2" stroke-linecap="round" stroke-linejoin="round"/>
<path d="M20.5 23C21.3284 23 22 22.3284 22 21.5C22 20.6716 21.3284 20 20.5 20C19.6716 20 19 20.6716 19 21.5C19 22.3284 19.6716 23 20.5 23Z" stroke="white" stroke-width="2" stroke-linecap="round" stroke-linejoin="round"/>
<path d="M1 1H5.18182L7.98364 14.3897C8.07924 14.8501 8.34109 15.2636 8.72334 15.5579C9.1056 15.8523 9.58391 16.0086 10.0745 15.9996H20.2364C20.727 16.0086 21.2053 15.8523 21.5876 15.5579C21.9698 15.2636 22.2317 14.8501 22.3273 14.3897L24 5.99988H6.22727" stroke="white" stroke-width="2" stroke-linecap="round" stroke-linejoin="round"/>
</svg>
