<svg width="21" height="19" viewBox="0 0 21 19" fill="none" xmlns="http://www.w3.org/2000/svg">
<path d="M18.5558 2.62049C18.0984 2.15202 17.5553 1.78041 16.9576 1.52686C16.3598 1.27332 15.7191 1.14282 15.0721 1.14282C14.425 1.14282 13.7844 1.27332 13.1866 1.52686C12.5889 1.78041 12.0458 2.15202 11.5884 2.62049L10.6391 3.59226L9.68976 2.62049C8.76582 1.67467 7.51269 1.14331 6.20603 1.14331C4.89938 1.14331 3.64625 1.67467 2.7223 2.62049C1.79836 3.5663 1.2793 4.84911 1.2793 6.1867C1.2793 7.52429 1.79836 8.80709 2.7223 9.75291L3.6716 10.7247L10.6391 17.8571L17.6065 10.7247L18.5558 9.75291C19.0134 9.28467 19.3765 8.72872 19.6241 8.11681C19.8718 7.50491 19.9993 6.84905 19.9993 6.1867C19.9993 5.52435 19.8718 4.86849 19.6241 4.25658C19.3765 3.64468 19.0134 3.08873 18.5558 2.62049V2.62049Z" stroke="white" stroke-width="1.5" stroke-linecap="round" stroke-linejoin="round"/>
</svg>
