<svg width="27" height="35" viewBox="0 0 27 35" fill="none" xmlns="http://www.w3.org/2000/svg">
<path d="M25.8532 15.8394C25.1087 14.1301 24.0263 12.5959 22.6738 11.3328L21.5578 10.2883C21.5199 10.2538 21.4743 10.2294 21.425 10.217C21.3756 10.2047 21.3241 10.205 21.2749 10.2177C21.2256 10.2305 21.1802 10.2553 21.1426 10.2902C21.105 10.325 21.0764 10.3687 21.0592 10.4174L20.5606 11.8766C20.25 12.792 19.6785 13.7269 18.8693 14.6462C18.8156 14.7049 18.7542 14.7206 18.7121 14.7245C18.6699 14.7284 18.6047 14.7206 18.5471 14.6658C18.4934 14.6188 18.4666 14.5484 18.4704 14.478C18.6123 12.123 17.922 9.46683 16.4109 6.57591C15.1606 4.17398 13.4233 2.30017 11.2525 0.993584L9.6686 0.0429849C9.4615 -0.0821969 9.19687 0.082104 9.20837 0.328556L9.29275 2.20628C9.35027 3.4894 9.20454 4.62386 8.85937 5.56663C8.43749 6.72065 7.83153 7.79252 7.05681 8.75486C6.51767 9.42365 5.90659 10.0286 5.23508 10.5583C3.61779 11.8264 2.30272 13.4513 1.38835 15.3113C0.476235 17.1875 0.00111283 19.2531 0 21.3474C0 23.1938 0.356676 24.9815 1.06236 26.6676C1.74375 28.2909 2.72707 29.7642 3.95795 31.0059C5.20056 32.2577 6.64261 33.2435 8.24957 33.9281C9.91405 34.6401 11.6783 35 13.5 35C15.3217 35 17.0859 34.6401 18.7504 33.932C20.3534 33.2515 21.8111 32.2589 23.042 31.0098C24.2846 29.758 25.2588 28.2949 25.9376 26.6715C26.6422 24.9901 27.0037 23.1799 27 21.3513C27 19.4422 26.6164 17.588 25.8532 15.8394Z" fill="#FF2727"/>
</svg>
