<svg width="11" height="14" viewBox="0 0 11 14" fill="none" xmlns="http://www.w3.org/2000/svg">
<path d="M9.61925 6.73325L9.61895 6.73258C9.46007 6.37497 9.2549 6.04089 9.00941 5.73861C8.84819 6.01164 8.65243 6.2721 8.43158 6.51807L8.42514 6.52525L8.41856 6.5323C8.17785 6.7902 7.88936 6.86118 7.71398 6.87712C7.50022 6.89656 7.17112 6.85698 6.88852 6.60223C6.62549 6.36734 6.50933 6.03714 6.52654 5.72732L6.52687 5.72145C6.5698 5.02316 6.36414 4.14854 5.80352 3.09701L5.80271 3.09549C5.51815 2.55954 5.16519 2.11038 4.74914 1.745C4.71064 2.03223 4.64448 2.30992 4.54636 2.5728L9.61925 6.73325ZM9.61925 6.73325C9.87286 7.30291 10 7.90489 10 8.52811L10 8.53018C10.0012 9.12475 9.88136 9.71335 9.64767 10.2601L9.64736 10.2608C9.42178 10.7897 9.09868 11.2657 8.68479 11.6744L8.68222 11.677C8.2728 12.0843 7.78796 12.408 7.25478 12.6299L7.25415 12.6302C6.69871 12.8618 6.11085 12.9797 5.5 12.9797C4.88919 12.9797 4.30203 12.8618 3.74766 12.6293L3.74633 12.6288M9.61925 6.73325L3.74633 12.6288M3.64784 4.13146L3.64741 4.13198C3.38021 4.45694 3.07736 4.75086 2.74455 5.00823L2.74227 5.00999L2.74227 5.00999C2.20356 5.42411 1.7654 5.95461 1.46054 6.56185C1.15805 7.17263 1.00045 7.84494 1 8.52654L3.64784 4.13146ZM3.64784 4.13146C4.03268 3.66279 4.33531 3.13863 4.54618 2.57326L3.64784 4.13146ZM3.74633 12.6288C3.21228 12.4057 2.73221 12.0846 2.3157 11.6734L3.74633 12.6288ZM1.35231 10.2584C1.11846 9.7105 1.00007 9.13043 1 8.52709L2.31567 11.6733C1.9062 11.2683 1.57905 10.7879 1.35231 10.2584Z" stroke="white" stroke-width="2"/>
</svg>
