<svg width="22" height="22" viewBox="0 0 22 22" fill="none" xmlns="http://www.w3.org/2000/svg">
<path d="M11.0002 1.48844C8.00382 1.48844 5.60611 3.88615 5.60611 6.88256V9.13794C4.60017 9.18728 3.84141 9.97857 3.84141 11.0002V18.6473C3.84141 19.7025 4.65088 20.512 5.70611 20.512H16.2943C17.3496 20.512 18.1591 19.7025 18.1591 18.6473V11.0002C18.1591 9.97857 17.4003 9.18728 16.3943 9.13794V6.88256C16.3943 3.88615 13.9966 1.48844 11.0002 1.48844ZM16.7826 11.0002V18.6473C16.7826 18.801 16.7318 18.9214 16.6501 19.003C16.5684 19.0847 16.4481 19.1355 16.2943 19.1355H5.70611C5.55237 19.1355 5.43202 19.0847 5.35035 19.003C5.26869 18.9214 5.21788 18.801 5.21788 18.6473V11.0002C5.21788 10.8465 5.26869 10.7261 5.35035 10.6444C5.43202 10.5628 5.55237 10.512 5.70611 10.512H6.29435H15.7061H16.2943C16.4481 10.512 16.5684 10.5628 16.6501 10.6444C16.7318 10.7261 16.7826 10.8465 16.7826 11.0002ZM6.98258 9.1355V6.88256C6.98258 4.64367 8.76134 2.86491 11.0002 2.86491C13.2391 2.86491 15.0179 4.64367 15.0179 6.88256V9.1355H6.98258Z" fill="#FF2727" stroke="#FF2727" stroke-width="0.2"/>
<path d="M10.9991 12.1769C9.99908 12.1769 9.23438 12.9416 9.23438 13.9416C9.23438 14.7063 9.70496 15.3534 10.4108 15.5886V16.8828C10.4108 17.2357 10.6461 17.471 10.9991 17.471C11.352 17.471 11.5873 17.2357 11.5873 16.8828V15.5886C12.2932 15.3534 12.7638 14.7063 12.7638 13.9416C12.7638 12.9416 11.9991 12.1769 10.9991 12.1769ZM10.9991 14.5298C10.6461 14.5298 10.4108 14.2945 10.4108 13.9416C10.4108 13.5886 10.6461 13.3534 10.9991 13.3534C11.352 13.3534 11.5873 13.5886 11.5873 13.9416C11.5873 14.2945 11.352 14.5298 10.9991 14.5298Z" fill="#FF2727"/>
</svg>
