<svg width="26" height="21" viewBox="0 0 26 21" fill="none" xmlns="http://www.w3.org/2000/svg">
<path d="M16.9667 1H1V14.8378H16.9667V1Z" stroke="#FFD704" stroke-width="1.5" stroke-linecap="round" stroke-linejoin="round"/>
<path d="M16.9663 6.3222H21.2241L24.4174 9.51554V14.8378H16.9663V6.3222Z" stroke="#FFD704" stroke-width="1.5" stroke-linecap="round" stroke-linejoin="round"/>
<path d="M5.79002 20.16C7.25971 20.16 8.45113 18.9686 8.45113 17.4989C8.45113 16.0292 7.25971 14.8378 5.79002 14.8378C4.32033 14.8378 3.12891 16.0292 3.12891 17.4989C3.12891 18.9686 4.32033 20.16 5.79002 20.16Z" stroke="#FFD704" stroke-width="1.5" stroke-linecap="round" stroke-linejoin="round"/>
<path d="M19.6274 20.16C21.0971 20.16 22.2885 18.9686 22.2885 17.4989C22.2885 16.0292 21.0971 14.8378 19.6274 14.8378C18.1577 14.8378 16.9663 16.0292 16.9663 17.4989C16.9663 18.9686 18.1577 20.16 19.6274 20.16Z" stroke="#FFD704" stroke-width="1.5" stroke-linecap="round" stroke-linejoin="round"/>
</svg>
